<mxfile host="app.diagrams.net" modified="2023-07-10T17:38:16.213Z" agent="Mozilla/5.0 (Windows NT 10.0; Win64; x64) AppleWebKit/537.36 (KHTML, like Gecko) Chrome/114.0.0.0 Safari/537.36" etag="bFHp_zzzdRGtZOcMggJh" version="21.6.1" type="device">
  <diagram name="Page-1" id="0cxLK6B1qZ-80W-4j8hx">
    <mxGraphModel dx="2099" dy="1329" grid="0" gridSize="10" guides="1" tooltips="1" connect="1" arrows="1" fold="1" page="0" pageScale="1" pageWidth="850" pageHeight="1100" math="0" shadow="0">
      <root>
        <mxCell id="0" />
        <mxCell id="1" parent="0" />
        <mxCell id="Iu25lgEWChFgaFbriD92-5" value="" style="curved=1;endArrow=classic;html=1;rounded=0;fontSize=14;fontStyle=1;exitX=1;exitY=0.5;exitDx=0;exitDy=0;entryX=0.5;entryY=0;entryDx=0;entryDy=0;" parent="1" source="WK32DhDvXuLAIViGbRyr-48" target="HEd6Ybi1qfZsTUwNIPrC-7" edge="1">
          <mxGeometry width="50" height="50" relative="1" as="geometry">
            <mxPoint x="255" y="230" as="sourcePoint" />
            <mxPoint x="292.4999999999998" y="186.26" as="targetPoint" />
            <Array as="points">
              <mxPoint x="260" y="210" />
              <mxPoint x="270" y="190" />
            </Array>
          </mxGeometry>
        </mxCell>
        <mxCell id="Iu25lgEWChFgaFbriD92-103" value="&lt;font style=&quot;font-size: 18px;&quot;&gt;Output&lt;/font&gt;" style="rounded=1;whiteSpace=wrap;html=1;fillColor=#f5f5f5;gradientColor=#b3b3b3;strokeColor=#666666;fontSize=14;fontStyle=1;rotation=-90;" parent="1" vertex="1">
          <mxGeometry x="2591.0000000000005" y="295.24" width="90" height="35" as="geometry" />
        </mxCell>
        <mxCell id="Iu25lgEWChFgaFbriD92-110" value="" style="strokeWidth=2;html=1;shape=mxgraph.flowchart.annotation_1;align=left;pointerEvents=1;direction=south;fontSize=14;fontStyle=1" parent="1" vertex="1">
          <mxGeometry x="236" y="-156.13" width="734" height="50" as="geometry" />
        </mxCell>
        <mxCell id="Iu25lgEWChFgaFbriD92-111" value="&lt;font style=&quot;font-size: 18px;&quot;&gt;Decision Sub Graph&lt;/font&gt;" style="text;html=1;align=center;verticalAlign=middle;resizable=0;points=[];autosize=1;strokeColor=none;fillColor=none;fontSize=14;fontStyle=1" parent="1" vertex="1">
          <mxGeometry x="2142" y="-42" width="200" height="40" as="geometry" />
        </mxCell>
        <mxCell id="Iu25lgEWChFgaFbriD92-123" value="&lt;font style=&quot;font-size: 18px;&quot;&gt;Sub Graph1&lt;/font&gt;" style="text;html=1;align=center;verticalAlign=middle;resizable=0;points=[];autosize=1;strokeColor=none;fillColor=none;fontSize=14;fontStyle=1" parent="1" vertex="1">
          <mxGeometry x="518" y="-190" width="130" height="40" as="geometry" />
        </mxCell>
        <mxCell id="Iu25lgEWChFgaFbriD92-125" value="&lt;font style=&quot;font-size: 18px;&quot;&gt;Skipping Sub Graph1 and Sub Graph2&lt;/font&gt;" style="text;html=1;align=center;verticalAlign=middle;resizable=0;points=[];autosize=1;strokeColor=none;fillColor=none;fontSize=14;fontStyle=1;rotation=0;" parent="1" vertex="1">
          <mxGeometry x="828" y="445" width="350" height="40" as="geometry" />
        </mxCell>
        <mxCell id="Iu25lgEWChFgaFbriD92-127" value="&lt;font style=&quot;font-size: 18px;&quot;&gt;Merging Early Exit Sub Graph with Decision Sub Graph&lt;/font&gt;" style="text;html=1;align=center;verticalAlign=middle;resizable=0;points=[];autosize=1;strokeColor=none;fillColor=none;fontSize=14;fontStyle=1;rotation=0;" parent="1" vertex="1">
          <mxGeometry x="764" y="481" width="500" height="40" as="geometry" />
        </mxCell>
        <mxCell id="Iu25lgEWChFgaFbriD92-145" value="&lt;font style=&quot;font-size: 48px;&quot;&gt;...&lt;/font&gt;" style="text;html=1;align=center;verticalAlign=middle;resizable=0;points=[];autosize=1;strokeColor=none;fillColor=none;fontSize=14;fontStyle=1" parent="1" vertex="1">
          <mxGeometry x="57" y="133.12" width="60" height="70" as="geometry" />
        </mxCell>
        <mxCell id="Iu25lgEWChFgaFbriD92-146" value="&lt;font style=&quot;font-size: 48px;&quot;&gt;...&lt;/font&gt;" style="text;html=1;align=center;verticalAlign=middle;resizable=0;points=[];autosize=1;strokeColor=none;fillColor=none;fontSize=14;fontStyle=1" parent="1" vertex="1">
          <mxGeometry x="57" y="377" width="60" height="70" as="geometry" />
        </mxCell>
        <mxCell id="Iu25lgEWChFgaFbriD92-147" value="&lt;font style=&quot;font-size: 18px;&quot;&gt;Early Exit Sub Graph&lt;/font&gt;" style="text;html=1;align=center;verticalAlign=middle;resizable=0;points=[];autosize=1;strokeColor=none;fillColor=none;fontSize=14;fontStyle=1;rotation=-90;" parent="1" vertex="1">
          <mxGeometry x="-10" y="295.24" width="200" height="40" as="geometry" />
        </mxCell>
        <mxCell id="WK32DhDvXuLAIViGbRyr-26" style="edgeStyle=orthogonalEdgeStyle;rounded=0;orthogonalLoop=1;jettySize=auto;html=1;exitX=0.5;exitY=1;exitDx=0;exitDy=0;entryX=0.5;entryY=0;entryDx=0;entryDy=0;" parent="1" target="HEd6Ybi1qfZsTUwNIPrC-8" edge="1">
          <mxGeometry relative="1" as="geometry">
            <mxPoint x="345.6299999999999" y="186.25" as="targetPoint" />
            <mxPoint x="326.2399999999998" y="186.26" as="sourcePoint" />
          </mxGeometry>
        </mxCell>
        <mxCell id="WK32DhDvXuLAIViGbRyr-40" style="edgeStyle=orthogonalEdgeStyle;rounded=0;orthogonalLoop=1;jettySize=auto;html=1;exitX=0.5;exitY=1;exitDx=0;exitDy=0;entryX=0.5;entryY=0;entryDx=0;entryDy=0;" parent="1" target="HEd6Ybi1qfZsTUwNIPrC-14" edge="1">
          <mxGeometry relative="1" as="geometry">
            <mxPoint x="489.36999999999966" y="186.8800000000001" as="sourcePoint" />
            <mxPoint x="505.6299999999999" y="186.8800000000001" as="targetPoint" />
          </mxGeometry>
        </mxCell>
        <mxCell id="HEd6Ybi1qfZsTUwNIPrC-84" style="edgeStyle=orthogonalEdgeStyle;rounded=0;orthogonalLoop=1;jettySize=auto;html=1;exitX=0.5;exitY=1;exitDx=0;exitDy=0;entryX=0.5;entryY=0;entryDx=0;entryDy=0;" parent="1" source="WK32DhDvXuLAIViGbRyr-46" target="HEd6Ybi1qfZsTUwNIPrC-93" edge="1">
          <mxGeometry relative="1" as="geometry">
            <mxPoint x="1008.9299999999998" y="305.0000000000002" as="targetPoint" />
          </mxGeometry>
        </mxCell>
        <mxCell id="WK32DhDvXuLAIViGbRyr-46" value="&lt;b&gt;&lt;font style=&quot;font-size: 18px;&quot;&gt;Add&lt;/font&gt;&lt;/b&gt;" style="rounded=1;whiteSpace=wrap;html=1;fillColor=#76608a;fontColor=#ffffff;strokeColor=#432D57;rotation=-90;" parent="1" vertex="1">
          <mxGeometry x="928" y="288.13" width="65" height="33.74" as="geometry" />
        </mxCell>
        <mxCell id="WK32DhDvXuLAIViGbRyr-48" value="&lt;b&gt;&lt;font style=&quot;font-size: 18px;&quot;&gt;Relu&lt;/font&gt;&lt;/b&gt;" style="rounded=1;whiteSpace=wrap;html=1;fillColor=#a20025;fontColor=#ffffff;strokeColor=#6F0000;rotation=-90;" parent="1" vertex="1">
          <mxGeometry x="220" y="283.74" width="65" height="33.74" as="geometry" />
        </mxCell>
        <mxCell id="WK32DhDvXuLAIViGbRyr-152" style="edgeStyle=orthogonalEdgeStyle;rounded=0;orthogonalLoop=1;jettySize=auto;html=1;exitX=0.5;exitY=1;exitDx=0;exitDy=0;entryX=0.5;entryY=0;entryDx=0;entryDy=0;" parent="1" target="WK32DhDvXuLAIViGbRyr-151" edge="1">
          <mxGeometry relative="1" as="geometry">
            <mxPoint x="379.36999999999966" y="186.25" as="sourcePoint" />
          </mxGeometry>
        </mxCell>
        <mxCell id="WK32DhDvXuLAIViGbRyr-52" style="edgeStyle=orthogonalEdgeStyle;rounded=0;orthogonalLoop=1;jettySize=auto;html=1;exitX=0.5;exitY=1;exitDx=0;exitDy=0;entryX=0.5;entryY=0;entryDx=0;entryDy=0;" parent="1" source="WK32DhDvXuLAIViGbRyr-51" target="WK32DhDvXuLAIViGbRyr-48" edge="1">
          <mxGeometry relative="1" as="geometry" />
        </mxCell>
        <mxCell id="WK32DhDvXuLAIViGbRyr-51" value="&lt;b&gt;&lt;font style=&quot;font-size: 18px;&quot;&gt;Add&lt;/font&gt;&lt;/b&gt;" style="rounded=1;whiteSpace=wrap;html=1;fillColor=#76608a;fontColor=#ffffff;strokeColor=#432D57;rotation=-90;" parent="1" vertex="1">
          <mxGeometry x="151" y="283.74" width="65" height="33.74" as="geometry" />
        </mxCell>
        <mxCell id="WK32DhDvXuLAIViGbRyr-60" value="" style="curved=1;endArrow=classic;html=1;rounded=0;exitX=0;exitY=0.5;exitDx=0;exitDy=0;entryX=0;entryY=0.5;entryDx=0;entryDy=0;" parent="1" source="WK32DhDvXuLAIViGbRyr-48" target="WK32DhDvXuLAIViGbRyr-46" edge="1">
          <mxGeometry width="50" height="50" relative="1" as="geometry">
            <mxPoint x="290" y="300" as="sourcePoint" />
            <mxPoint x="340" y="250" as="targetPoint" />
            <Array as="points">
              <mxPoint x="270" y="410" />
              <mxPoint x="410" y="430" />
              <mxPoint x="599" y="427" />
              <mxPoint x="795" y="424" />
              <mxPoint x="961" y="408" />
            </Array>
          </mxGeometry>
        </mxCell>
        <mxCell id="WK32DhDvXuLAIViGbRyr-62" value="" style="curved=1;endArrow=classic;html=1;rounded=0;exitX=0.5;exitY=1;exitDx=0;exitDy=0;fontSize=14;fontStyle=1;entryX=1;entryY=0.5;entryDx=0;entryDy=0;" parent="1" source="HEd6Ybi1qfZsTUwNIPrC-5" target="WK32DhDvXuLAIViGbRyr-51" edge="1">
          <mxGeometry width="50" height="50" relative="1" as="geometry">
            <mxPoint x="93.75" y="185" as="sourcePoint" />
            <mxPoint x="179.38" y="272" as="targetPoint" />
            <Array as="points">
              <mxPoint x="170" y="180" />
            </Array>
          </mxGeometry>
        </mxCell>
        <mxCell id="WK32DhDvXuLAIViGbRyr-63" value="" style="curved=1;endArrow=classic;html=1;rounded=0;exitX=0.5;exitY=1;exitDx=0;exitDy=0;fontSize=14;fontStyle=1;entryX=0;entryY=0.5;entryDx=0;entryDy=0;" parent="1" source="HEd6Ybi1qfZsTUwNIPrC-6" target="WK32DhDvXuLAIViGbRyr-51" edge="1">
          <mxGeometry width="50" height="50" relative="1" as="geometry">
            <mxPoint x="116.86999999999989" y="423.1300000000001" as="sourcePoint" />
            <mxPoint x="167.5" y="518" as="targetPoint" />
            <Array as="points">
              <mxPoint x="170" y="420" />
            </Array>
          </mxGeometry>
        </mxCell>
        <mxCell id="WK32DhDvXuLAIViGbRyr-171" style="edgeStyle=orthogonalEdgeStyle;rounded=0;orthogonalLoop=1;jettySize=auto;html=1;exitX=0.5;exitY=1;exitDx=0;exitDy=0;entryX=0.5;entryY=0;entryDx=0;entryDy=0;" parent="1" source="HEd6Ybi1qfZsTUwNIPrC-130" target="HEd6Ybi1qfZsTUwNIPrC-2" edge="1">
          <mxGeometry relative="1" as="geometry">
            <mxPoint x="1926" y="306.98000000000013" as="sourcePoint" />
            <mxPoint x="1947.63" y="307.11" as="targetPoint" />
          </mxGeometry>
        </mxCell>
        <mxCell id="HEd6Ybi1qfZsTUwNIPrC-129" style="edgeStyle=orthogonalEdgeStyle;rounded=0;orthogonalLoop=1;jettySize=auto;html=1;exitX=0.5;exitY=1;exitDx=0;exitDy=0;entryX=0.5;entryY=0;entryDx=0;entryDy=0;" parent="1" source="WK32DhDvXuLAIViGbRyr-122" target="HEd6Ybi1qfZsTUwNIPrC-128" edge="1">
          <mxGeometry relative="1" as="geometry" />
        </mxCell>
        <mxCell id="WK32DhDvXuLAIViGbRyr-122" value="&lt;b&gt;&lt;font style=&quot;font-size: 18px;&quot;&gt;Relu&lt;/font&gt;&lt;/b&gt;" style="rounded=1;whiteSpace=wrap;html=1;fillColor=#a20025;fontColor=#ffffff;strokeColor=#6F0000;rotation=-90;" parent="1" vertex="1">
          <mxGeometry x="1768" y="292.11" width="65" height="33.74" as="geometry" />
        </mxCell>
        <mxCell id="WK32DhDvXuLAIViGbRyr-145" value="" style="strokeWidth=2;html=1;shape=mxgraph.flowchart.annotation_1;align=left;pointerEvents=1;direction=south;fontSize=14;fontStyle=1" parent="1" vertex="1">
          <mxGeometry x="1768" y="-5" width="893" height="50" as="geometry" />
        </mxCell>
        <mxCell id="WK32DhDvXuLAIViGbRyr-146" value="&lt;font style=&quot;font-size: 18px;&quot;&gt;Sub Graph2&lt;/font&gt;" style="text;html=1;align=center;verticalAlign=middle;resizable=0;points=[];autosize=1;strokeColor=none;fillColor=none;fontSize=14;fontStyle=1" parent="1" vertex="1">
          <mxGeometry x="1308" y="-190" width="130" height="40" as="geometry" />
        </mxCell>
        <mxCell id="WK32DhDvXuLAIViGbRyr-147" value="" style="strokeWidth=2;html=1;shape=mxgraph.flowchart.annotation_1;align=left;pointerEvents=1;direction=south;fontSize=14;fontStyle=1" parent="1" vertex="1">
          <mxGeometry x="1000" y="-156.13" width="740" height="50" as="geometry" />
        </mxCell>
        <mxCell id="WK32DhDvXuLAIViGbRyr-148" value="" style="curved=1;endArrow=classic;html=1;rounded=0;exitX=0.5;exitY=1;exitDx=0;exitDy=0;entryX=0;entryY=0.5;entryDx=0;entryDy=0;" parent="1" source="WK32DhDvXuLAIViGbRyr-51" target="WK32DhDvXuLAIViGbRyr-122" edge="1">
          <mxGeometry width="50" height="50" relative="1" as="geometry">
            <mxPoint x="360" y="440" as="sourcePoint" />
            <mxPoint x="410" y="390" as="targetPoint" />
            <Array as="points">
              <mxPoint x="240" y="420" />
              <mxPoint x="340" y="480" />
              <mxPoint x="903" y="485" />
              <mxPoint x="1280" y="476" />
              <mxPoint x="1791" y="459" />
            </Array>
          </mxGeometry>
        </mxCell>
        <mxCell id="WK32DhDvXuLAIViGbRyr-154" style="edgeStyle=orthogonalEdgeStyle;rounded=0;orthogonalLoop=1;jettySize=auto;html=1;exitX=0.5;exitY=1;exitDx=0;exitDy=0;entryX=0.5;entryY=0;entryDx=0;entryDy=0;" parent="1" source="WK32DhDvXuLAIViGbRyr-151" target="HEd6Ybi1qfZsTUwNIPrC-13" edge="1">
          <mxGeometry relative="1" as="geometry">
            <mxPoint x="455.6299999999999" y="186.8800000000001" as="targetPoint" />
          </mxGeometry>
        </mxCell>
        <mxCell id="WK32DhDvXuLAIViGbRyr-151" value="&lt;b&gt;&lt;font style=&quot;font-size: 18px;&quot;&gt;Conv&lt;/font&gt;&lt;/b&gt;" style="rounded=1;whiteSpace=wrap;html=1;fillColor=#0038A8;fontColor=#ffffff;strokeColor=#001DBC;rotation=-90;" parent="1" vertex="1">
          <mxGeometry x="404" y="169.38" width="65" height="33.74" as="geometry" />
        </mxCell>
        <mxCell id="HEd6Ybi1qfZsTUwNIPrC-147" style="edgeStyle=orthogonalEdgeStyle;rounded=0;orthogonalLoop=1;jettySize=auto;html=1;exitX=0.5;exitY=1;exitDx=0;exitDy=0;entryX=0.5;entryY=0;entryDx=0;entryDy=0;" parent="1" source="WK32DhDvXuLAIViGbRyr-170" target="WK32DhDvXuLAIViGbRyr-176" edge="1">
          <mxGeometry relative="1" as="geometry" />
        </mxCell>
        <mxCell id="WK32DhDvXuLAIViGbRyr-170" value="&lt;b&gt;&lt;font style=&quot;font-size: 18px;&quot;&gt;QuantizeLinear&lt;/font&gt;&lt;/b&gt;" style="rounded=1;whiteSpace=wrap;html=1;fillColor=#647687;fontColor=#ffffff;strokeColor=#314354;rotation=-90;" parent="1" vertex="1">
          <mxGeometry x="2118" y="292.11" width="161" height="33.74" as="geometry" />
        </mxCell>
        <mxCell id="WK32DhDvXuLAIViGbRyr-176" value="&lt;b&gt;&lt;font style=&quot;font-size: 18px;&quot;&gt;DeQuantizeLinear&lt;/font&gt;&lt;/b&gt;" style="rounded=1;whiteSpace=wrap;html=1;rotation=-90;fillColor=#d80073;strokeColor=#A50040;fontColor=#ffffff;" parent="1" vertex="1">
          <mxGeometry x="2165" y="291.13" width="179.7" height="33.74" as="geometry" />
        </mxCell>
        <mxCell id="WK32DhDvXuLAIViGbRyr-178" value="" style="curved=1;endArrow=classic;html=1;rounded=0;fontSize=14;fontStyle=1;exitX=1;exitY=0.5;exitDx=0;exitDy=0;entryX=0.5;entryY=0;entryDx=0;entryDy=0;" parent="1" source="WK32DhDvXuLAIViGbRyr-176" target="WK32DhDvXuLAIViGbRyr-179" edge="1">
          <mxGeometry width="50" height="50" relative="1" as="geometry">
            <mxPoint x="2293.7000000000003" y="266.62" as="sourcePoint" />
            <mxPoint x="2333.7000000000003" y="183.62" as="targetPoint" />
            <Array as="points">
              <mxPoint x="2252" y="192" />
              <mxPoint x="2288.7000000000003" y="192.62" />
            </Array>
          </mxGeometry>
        </mxCell>
        <mxCell id="WK32DhDvXuLAIViGbRyr-182" style="edgeStyle=orthogonalEdgeStyle;rounded=0;orthogonalLoop=1;jettySize=auto;html=1;exitX=0.5;exitY=1;exitDx=0;exitDy=0;entryX=0.5;entryY=0;entryDx=0;entryDy=0;" parent="1" source="WK32DhDvXuLAIViGbRyr-179" target="WK32DhDvXuLAIViGbRyr-180" edge="1">
          <mxGeometry relative="1" as="geometry" />
        </mxCell>
        <mxCell id="WK32DhDvXuLAIViGbRyr-179" value="&lt;b&gt;&lt;font style=&quot;font-size: 18px;&quot;&gt;Shape&lt;/font&gt;&lt;/b&gt;" style="rounded=1;whiteSpace=wrap;html=1;fillColor=#000000;fontColor=#ffffff;strokeColor=#001DBC;rotation=-90;" parent="1" vertex="1">
          <mxGeometry x="2264.7000000000003" y="175.51" width="80" height="33.74" as="geometry" />
        </mxCell>
        <mxCell id="WK32DhDvXuLAIViGbRyr-183" style="edgeStyle=orthogonalEdgeStyle;rounded=0;orthogonalLoop=1;jettySize=auto;html=1;exitX=0.5;exitY=1;exitDx=0;exitDy=0;entryX=0.5;entryY=0;entryDx=0;entryDy=0;" parent="1" source="WK32DhDvXuLAIViGbRyr-180" target="WK32DhDvXuLAIViGbRyr-181" edge="1">
          <mxGeometry relative="1" as="geometry" />
        </mxCell>
        <mxCell id="WK32DhDvXuLAIViGbRyr-180" value="&lt;b&gt;&lt;font style=&quot;font-size: 18px;&quot;&gt;Slice&lt;/font&gt;&lt;/b&gt;" style="rounded=1;whiteSpace=wrap;html=1;fillColor=#a0522d;fontColor=#ffffff;strokeColor=#6D1F00;rotation=-90;" parent="1" vertex="1">
          <mxGeometry x="2318.0000000000005" y="175.51" width="75" height="33.74" as="geometry" />
        </mxCell>
        <mxCell id="WK32DhDvXuLAIViGbRyr-181" value="&lt;b&gt;&lt;font style=&quot;font-size: 18px;&quot;&gt;Concat&lt;/font&gt;&lt;/b&gt;" style="rounded=1;whiteSpace=wrap;html=1;fillColor=#a0522d;strokeColor=#6D1F00;rotation=-90;fontColor=#ffffff;" parent="1" vertex="1">
          <mxGeometry x="2366.0000000000005" y="175.51" width="85" height="33.74" as="geometry" />
        </mxCell>
        <mxCell id="HEd6Ybi1qfZsTUwNIPrC-151" style="edgeStyle=orthogonalEdgeStyle;rounded=0;orthogonalLoop=1;jettySize=auto;html=1;exitX=0.5;exitY=1;exitDx=0;exitDy=0;entryX=0.5;entryY=0;entryDx=0;entryDy=0;" parent="1" source="WK32DhDvXuLAIViGbRyr-184" target="HEd6Ybi1qfZsTUwNIPrC-149" edge="1">
          <mxGeometry relative="1" as="geometry" />
        </mxCell>
        <mxCell id="WK32DhDvXuLAIViGbRyr-184" value="&lt;b&gt;&lt;font style=&quot;font-size: 18px;&quot;&gt;Resize&lt;/font&gt;&lt;/b&gt;" style="rounded=1;whiteSpace=wrap;html=1;fillColor=#000000;fontColor=#ffffff;strokeColor=#001DBC;rotation=-90;" parent="1" vertex="1">
          <mxGeometry x="2414.0000000000005" y="291.13" width="82.5" height="33.74" as="geometry" />
        </mxCell>
        <mxCell id="WK32DhDvXuLAIViGbRyr-185" value="" style="curved=1;endArrow=classic;html=1;rounded=0;exitX=0.5;exitY=1;exitDx=0;exitDy=0;fontSize=14;fontStyle=1;entryX=1;entryY=0.5;entryDx=0;entryDy=0;" parent="1" source="WK32DhDvXuLAIViGbRyr-181" target="WK32DhDvXuLAIViGbRyr-184" edge="1">
          <mxGeometry width="50" height="50" relative="1" as="geometry">
            <mxPoint x="2503.7000000000003" y="189.25" as="sourcePoint" />
            <mxPoint x="2552.7000000000003" y="271.25" as="targetPoint" />
            <Array as="points">
              <mxPoint x="2455" y="197" />
            </Array>
          </mxGeometry>
        </mxCell>
        <mxCell id="WK32DhDvXuLAIViGbRyr-186" value="" style="curved=1;endArrow=classic;html=1;rounded=0;exitX=0;exitY=0.5;exitDx=0;exitDy=0;entryX=0;entryY=0.5;entryDx=0;entryDy=0;" parent="1" source="WK32DhDvXuLAIViGbRyr-176" target="WK32DhDvXuLAIViGbRyr-184" edge="1">
          <mxGeometry width="50" height="50" relative="1" as="geometry">
            <mxPoint x="2651.7000000000003" y="345.57" as="sourcePoint" />
            <mxPoint x="2986.7000000000003" y="345.57" as="targetPoint" />
            <Array as="points">
              <mxPoint x="2293.07" y="457.51" />
              <mxPoint x="2463" y="441" />
            </Array>
          </mxGeometry>
        </mxCell>
        <mxCell id="HEd6Ybi1qfZsTUwNIPrC-139" style="edgeStyle=orthogonalEdgeStyle;rounded=0;orthogonalLoop=1;jettySize=auto;html=1;exitX=0.5;exitY=1;exitDx=0;exitDy=0;entryX=0.5;entryY=0;entryDx=0;entryDy=0;" parent="1" source="HEd6Ybi1qfZsTUwNIPrC-2" target="HEd6Ybi1qfZsTUwNIPrC-137" edge="1">
          <mxGeometry relative="1" as="geometry" />
        </mxCell>
        <mxCell id="HEd6Ybi1qfZsTUwNIPrC-2" value="&lt;b&gt;&lt;font style=&quot;font-size: 18px;&quot;&gt;Conv&lt;/font&gt;&lt;/b&gt;" style="rounded=1;whiteSpace=wrap;html=1;fillColor=#0038A8;fontColor=#ffffff;strokeColor=#001DBC;rotation=-90;" parent="1" vertex="1">
          <mxGeometry x="1946" y="292.11" width="65" height="33.74" as="geometry" />
        </mxCell>
        <mxCell id="HEd6Ybi1qfZsTUwNIPrC-5" value="&lt;b&gt;&lt;font style=&quot;font-size: 18px;&quot;&gt;DeQuantizeLinear&lt;/font&gt;&lt;/b&gt;" style="rounded=1;whiteSpace=wrap;html=1;rotation=-90;fillColor=#d80073;strokeColor=#A50040;fontColor=#ffffff;" parent="1" vertex="1">
          <mxGeometry x="36.3" y="165" width="179.7" height="33.74" as="geometry" />
        </mxCell>
        <mxCell id="HEd6Ybi1qfZsTUwNIPrC-6" value="&lt;b&gt;&lt;font style=&quot;font-size: 18px;&quot;&gt;DeQuantizeLinear&lt;/font&gt;&lt;/b&gt;" style="rounded=1;whiteSpace=wrap;html=1;rotation=-90;fillColor=#d80073;strokeColor=#A50040;fontColor=#ffffff;" parent="1" vertex="1">
          <mxGeometry x="36.3" y="402" width="179.7" height="33.74" as="geometry" />
        </mxCell>
        <mxCell id="HEd6Ybi1qfZsTUwNIPrC-7" value="&lt;b&gt;&lt;font style=&quot;font-size: 18px;&quot;&gt;QuantizeLinear&lt;/font&gt;&lt;/b&gt;" style="rounded=1;whiteSpace=wrap;html=1;fillColor=#647687;fontColor=#ffffff;strokeColor=#314354;rotation=-90;" parent="1" vertex="1">
          <mxGeometry x="237" y="172.51" width="161" height="33.74" as="geometry" />
        </mxCell>
        <mxCell id="HEd6Ybi1qfZsTUwNIPrC-8" value="&lt;b&gt;&lt;font style=&quot;font-size: 18px;&quot;&gt;DeQuantizeLinear&lt;/font&gt;&lt;/b&gt;" style="rounded=1;whiteSpace=wrap;html=1;rotation=-90;fillColor=#d80073;strokeColor=#A50040;fontColor=#ffffff;" parent="1" vertex="1">
          <mxGeometry x="285.3" y="169.38" width="179.7" height="33.74" as="geometry" />
        </mxCell>
        <mxCell id="HEd6Ybi1qfZsTUwNIPrC-9" value="&lt;b&gt;&lt;font style=&quot;font-size: 18px;&quot;&gt;DeQuantizeLinear&lt;/font&gt;&lt;/b&gt;" style="rounded=1;whiteSpace=wrap;html=1;rotation=0;fillColor=#d80073;strokeColor=#A50040;fontColor=#ffffff;" parent="1" vertex="1">
          <mxGeometry x="232" y="2" width="179.7" height="33.74" as="geometry" />
        </mxCell>
        <mxCell id="HEd6Ybi1qfZsTUwNIPrC-10" value="&lt;b&gt;&lt;font style=&quot;font-size: 18px;&quot;&gt;DeQuantizeLinear&lt;/font&gt;&lt;/b&gt;" style="rounded=1;whiteSpace=wrap;html=1;rotation=0;fillColor=#d80073;strokeColor=#A50040;fontColor=#ffffff;" parent="1" vertex="1">
          <mxGeometry x="232" y="41" width="179.7" height="33.74" as="geometry" />
        </mxCell>
        <mxCell id="HEd6Ybi1qfZsTUwNIPrC-11" value="" style="curved=1;endArrow=classic;html=1;rounded=0;exitX=1;exitY=0.5;exitDx=0;exitDy=0;entryX=1;entryY=0.5;entryDx=0;entryDy=0;" parent="1" source="HEd6Ybi1qfZsTUwNIPrC-9" target="WK32DhDvXuLAIViGbRyr-151" edge="1">
          <mxGeometry width="50" height="50" relative="1" as="geometry">
            <mxPoint x="634" y="148" as="sourcePoint" />
            <mxPoint x="684" y="98" as="targetPoint" />
            <Array as="points">
              <mxPoint x="421" y="18" />
              <mxPoint x="433" y="53" />
              <mxPoint x="437" y="94" />
            </Array>
          </mxGeometry>
        </mxCell>
        <mxCell id="HEd6Ybi1qfZsTUwNIPrC-12" value="" style="curved=1;endArrow=classic;html=1;rounded=0;exitX=1;exitY=0.5;exitDx=0;exitDy=0;entryX=1;entryY=0.5;entryDx=0;entryDy=0;" parent="1" source="HEd6Ybi1qfZsTUwNIPrC-10" target="WK32DhDvXuLAIViGbRyr-151" edge="1">
          <mxGeometry width="50" height="50" relative="1" as="geometry">
            <mxPoint x="634" y="148" as="sourcePoint" />
            <mxPoint x="684" y="98" as="targetPoint" />
            <Array as="points">
              <mxPoint x="424" y="57" />
              <mxPoint x="430" y="110" />
            </Array>
          </mxGeometry>
        </mxCell>
        <mxCell id="HEd6Ybi1qfZsTUwNIPrC-13" value="&lt;b&gt;&lt;font style=&quot;font-size: 18px;&quot;&gt;QuantizeLinear&lt;/font&gt;&lt;/b&gt;" style="rounded=1;whiteSpace=wrap;html=1;fillColor=#647687;fontColor=#ffffff;strokeColor=#314354;rotation=-90;" parent="1" vertex="1">
          <mxGeometry x="416" y="169.38" width="161" height="33.74" as="geometry" />
        </mxCell>
        <mxCell id="HEd6Ybi1qfZsTUwNIPrC-16" style="edgeStyle=orthogonalEdgeStyle;rounded=0;orthogonalLoop=1;jettySize=auto;html=1;exitX=0.5;exitY=1;exitDx=0;exitDy=0;entryX=0.5;entryY=0;entryDx=0;entryDy=0;" parent="1" source="HEd6Ybi1qfZsTUwNIPrC-14" target="HEd6Ybi1qfZsTUwNIPrC-15" edge="1">
          <mxGeometry relative="1" as="geometry" />
        </mxCell>
        <mxCell id="HEd6Ybi1qfZsTUwNIPrC-14" value="&lt;b&gt;&lt;font style=&quot;font-size: 18px;&quot;&gt;DeQuantizeLinear&lt;/font&gt;&lt;/b&gt;" style="rounded=1;whiteSpace=wrap;html=1;rotation=-90;fillColor=#d80073;strokeColor=#A50040;fontColor=#ffffff;" parent="1" vertex="1">
          <mxGeometry x="469" y="170.01" width="179.7" height="33.74" as="geometry" />
        </mxCell>
        <mxCell id="HEd6Ybi1qfZsTUwNIPrC-30" style="edgeStyle=orthogonalEdgeStyle;rounded=0;orthogonalLoop=1;jettySize=auto;html=1;exitX=0.5;exitY=1;exitDx=0;exitDy=0;entryX=0.5;entryY=0;entryDx=0;entryDy=0;" parent="1" source="HEd6Ybi1qfZsTUwNIPrC-15" target="HEd6Ybi1qfZsTUwNIPrC-29" edge="1">
          <mxGeometry relative="1" as="geometry" />
        </mxCell>
        <mxCell id="HEd6Ybi1qfZsTUwNIPrC-15" value="&lt;b&gt;&lt;font style=&quot;font-size: 18px;&quot;&gt;Conv&lt;/font&gt;&lt;/b&gt;" style="rounded=1;whiteSpace=wrap;html=1;fillColor=#0038A8;fontColor=#ffffff;strokeColor=#001DBC;rotation=-90;" parent="1" vertex="1">
          <mxGeometry x="583" y="170.01" width="65" height="33.74" as="geometry" />
        </mxCell>
        <mxCell id="HEd6Ybi1qfZsTUwNIPrC-25" value="&lt;b&gt;&lt;font style=&quot;font-size: 18px;&quot;&gt;DeQuantizeLinear&lt;/font&gt;&lt;/b&gt;" style="rounded=1;whiteSpace=wrap;html=1;rotation=0;fillColor=#d80073;strokeColor=#A50040;fontColor=#ffffff;" parent="1" vertex="1">
          <mxGeometry x="340" y="-94" width="179.7" height="33.74" as="geometry" />
        </mxCell>
        <mxCell id="HEd6Ybi1qfZsTUwNIPrC-26" value="&lt;b&gt;&lt;font style=&quot;font-size: 18px;&quot;&gt;DeQuantizeLinear&lt;/font&gt;&lt;/b&gt;" style="rounded=1;whiteSpace=wrap;html=1;rotation=0;fillColor=#d80073;strokeColor=#A50040;fontColor=#ffffff;" parent="1" vertex="1">
          <mxGeometry x="340" y="-49" width="179.7" height="33.74" as="geometry" />
        </mxCell>
        <mxCell id="HEd6Ybi1qfZsTUwNIPrC-27" value="" style="curved=1;endArrow=classic;html=1;rounded=0;exitX=1;exitY=0.5;exitDx=0;exitDy=0;entryX=1;entryY=0.5;entryDx=0;entryDy=0;" parent="1" source="HEd6Ybi1qfZsTUwNIPrC-25" target="HEd6Ybi1qfZsTUwNIPrC-15" edge="1">
          <mxGeometry width="50" height="50" relative="1" as="geometry">
            <mxPoint x="814" y="148" as="sourcePoint" />
            <mxPoint x="598" y="154" as="targetPoint" />
            <Array as="points">
              <mxPoint x="531" y="-79" />
              <mxPoint x="569" y="-38" />
            </Array>
          </mxGeometry>
        </mxCell>
        <mxCell id="HEd6Ybi1qfZsTUwNIPrC-28" value="" style="curved=1;endArrow=classic;html=1;rounded=0;exitX=1;exitY=0.5;exitDx=0;exitDy=0;entryX=1;entryY=0.5;entryDx=0;entryDy=0;" parent="1" source="HEd6Ybi1qfZsTUwNIPrC-26" target="HEd6Ybi1qfZsTUwNIPrC-15" edge="1">
          <mxGeometry width="50" height="50" relative="1" as="geometry">
            <mxPoint x="814" y="148" as="sourcePoint" />
            <mxPoint x="598" y="154" as="targetPoint" />
            <Array as="points">
              <mxPoint x="536" y="-35" />
              <mxPoint x="566" y="26" />
            </Array>
          </mxGeometry>
        </mxCell>
        <mxCell id="HEd6Ybi1qfZsTUwNIPrC-32" style="edgeStyle=orthogonalEdgeStyle;rounded=0;orthogonalLoop=1;jettySize=auto;html=1;exitX=0.5;exitY=1;exitDx=0;exitDy=0;entryX=0.5;entryY=0;entryDx=0;entryDy=0;" parent="1" source="HEd6Ybi1qfZsTUwNIPrC-29" target="HEd6Ybi1qfZsTUwNIPrC-31" edge="1">
          <mxGeometry relative="1" as="geometry" />
        </mxCell>
        <mxCell id="HEd6Ybi1qfZsTUwNIPrC-29" value="&lt;b&gt;&lt;font style=&quot;font-size: 18px;&quot;&gt;QuantizeLinear&lt;/font&gt;&lt;/b&gt;" style="rounded=1;whiteSpace=wrap;html=1;fillColor=#647687;fontColor=#ffffff;strokeColor=#314354;rotation=-90;" parent="1" vertex="1">
          <mxGeometry x="597" y="169.38" width="161" height="33.74" as="geometry" />
        </mxCell>
        <mxCell id="HEd6Ybi1qfZsTUwNIPrC-31" value="&lt;b&gt;&lt;font style=&quot;font-size: 18px;&quot;&gt;DeQuantizeLinear&lt;/font&gt;&lt;/b&gt;" style="rounded=1;whiteSpace=wrap;html=1;rotation=-90;fillColor=#d80073;strokeColor=#A50040;fontColor=#ffffff;" parent="1" vertex="1">
          <mxGeometry x="642" y="169.38" width="179.7" height="33.74" as="geometry" />
        </mxCell>
        <mxCell id="HEd6Ybi1qfZsTUwNIPrC-34" value="" style="endArrow=classic;html=1;rounded=0;exitX=0.5;exitY=1;exitDx=0;exitDy=0;entryX=0.5;entryY=0;entryDx=0;entryDy=0;" parent="1" source="HEd6Ybi1qfZsTUwNIPrC-31" target="HEd6Ybi1qfZsTUwNIPrC-35" edge="1">
          <mxGeometry width="50" height="50" relative="1" as="geometry">
            <mxPoint x="634" y="160" as="sourcePoint" />
            <mxPoint x="744" y="186" as="targetPoint" />
          </mxGeometry>
        </mxCell>
        <mxCell id="HEd6Ybi1qfZsTUwNIPrC-45" style="edgeStyle=orthogonalEdgeStyle;rounded=0;orthogonalLoop=1;jettySize=auto;html=1;exitX=0.5;exitY=1;exitDx=0;exitDy=0;entryX=0.5;entryY=0;entryDx=0;entryDy=0;" parent="1" source="HEd6Ybi1qfZsTUwNIPrC-35" target="HEd6Ybi1qfZsTUwNIPrC-44" edge="1">
          <mxGeometry relative="1" as="geometry" />
        </mxCell>
        <mxCell id="HEd6Ybi1qfZsTUwNIPrC-35" value="&lt;b&gt;&lt;font style=&quot;font-size: 18px;&quot;&gt;Conv&lt;/font&gt;&lt;/b&gt;" style="rounded=1;whiteSpace=wrap;html=1;fillColor=#0038A8;fontColor=#ffffff;strokeColor=#001DBC;rotation=-90;" parent="1" vertex="1">
          <mxGeometry x="758" y="169.38" width="65" height="33.74" as="geometry" />
        </mxCell>
        <mxCell id="HEd6Ybi1qfZsTUwNIPrC-40" value="&lt;b&gt;&lt;font style=&quot;font-size: 18px;&quot;&gt;DeQuantizeLinear&lt;/font&gt;&lt;/b&gt;" style="rounded=1;whiteSpace=wrap;html=1;rotation=0;fillColor=#d80073;strokeColor=#A50040;fontColor=#ffffff;" parent="1" vertex="1">
          <mxGeometry x="559" y="-148" width="179.7" height="33.74" as="geometry" />
        </mxCell>
        <mxCell id="HEd6Ybi1qfZsTUwNIPrC-41" value="&lt;b&gt;&lt;font style=&quot;font-size: 18px;&quot;&gt;DeQuantizeLinear&lt;/font&gt;&lt;/b&gt;" style="rounded=1;whiteSpace=wrap;html=1;rotation=0;fillColor=#d80073;strokeColor=#A50040;fontColor=#ffffff;" parent="1" vertex="1">
          <mxGeometry x="557.7" y="-105" width="179.7" height="33.74" as="geometry" />
        </mxCell>
        <mxCell id="HEd6Ybi1qfZsTUwNIPrC-42" value="" style="curved=1;endArrow=classic;html=1;rounded=0;exitX=1;exitY=0.5;exitDx=0;exitDy=0;entryX=1;entryY=0.5;entryDx=0;entryDy=0;" parent="1" source="HEd6Ybi1qfZsTUwNIPrC-40" target="HEd6Ybi1qfZsTUwNIPrC-35" edge="1">
          <mxGeometry width="50" height="50" relative="1" as="geometry">
            <mxPoint x="1012" y="148" as="sourcePoint" />
            <mxPoint x="780" y="154" as="targetPoint" />
            <Array as="points">
              <mxPoint x="766" y="-131" />
              <mxPoint x="785" y="17" />
            </Array>
          </mxGeometry>
        </mxCell>
        <mxCell id="HEd6Ybi1qfZsTUwNIPrC-43" value="" style="curved=1;endArrow=classic;html=1;rounded=0;exitX=1;exitY=0.5;exitDx=0;exitDy=0;entryX=1;entryY=0.5;entryDx=0;entryDy=0;" parent="1" source="HEd6Ybi1qfZsTUwNIPrC-41" target="HEd6Ybi1qfZsTUwNIPrC-35" edge="1">
          <mxGeometry width="50" height="50" relative="1" as="geometry">
            <mxPoint x="1012" y="148" as="sourcePoint" />
            <mxPoint x="780" y="154" as="targetPoint" />
            <Array as="points">
              <mxPoint x="759" y="-92" />
            </Array>
          </mxGeometry>
        </mxCell>
        <mxCell id="HEd6Ybi1qfZsTUwNIPrC-47" style="edgeStyle=orthogonalEdgeStyle;rounded=0;orthogonalLoop=1;jettySize=auto;html=1;exitX=0.5;exitY=1;exitDx=0;exitDy=0;entryX=0.5;entryY=0;entryDx=0;entryDy=0;" parent="1" source="HEd6Ybi1qfZsTUwNIPrC-44" target="HEd6Ybi1qfZsTUwNIPrC-46" edge="1">
          <mxGeometry relative="1" as="geometry" />
        </mxCell>
        <mxCell id="HEd6Ybi1qfZsTUwNIPrC-44" value="&lt;b&gt;&lt;font style=&quot;font-size: 18px;&quot;&gt;QuantizeLinear&lt;/font&gt;&lt;/b&gt;" style="rounded=1;whiteSpace=wrap;html=1;fillColor=#647687;fontColor=#ffffff;strokeColor=#314354;rotation=-90;" parent="1" vertex="1">
          <mxGeometry x="764" y="169.38" width="161" height="33.74" as="geometry" />
        </mxCell>
        <mxCell id="HEd6Ybi1qfZsTUwNIPrC-46" value="&lt;b&gt;&lt;font style=&quot;font-size: 18px;&quot;&gt;DeQuantizeLinear&lt;/font&gt;&lt;/b&gt;" style="rounded=1;whiteSpace=wrap;html=1;rotation=-90;fillColor=#d80073;strokeColor=#A50040;fontColor=#ffffff;" parent="1" vertex="1">
          <mxGeometry x="815" y="169.38" width="179.7" height="33.74" as="geometry" />
        </mxCell>
        <mxCell id="HEd6Ybi1qfZsTUwNIPrC-48" value="" style="curved=1;endArrow=classic;html=1;rounded=0;exitX=0.5;exitY=1;exitDx=0;exitDy=0;fontSize=14;fontStyle=1;entryX=1;entryY=0.5;entryDx=0;entryDy=0;" parent="1" source="HEd6Ybi1qfZsTUwNIPrC-46" target="WK32DhDvXuLAIViGbRyr-46" edge="1">
          <mxGeometry width="50" height="50" relative="1" as="geometry">
            <mxPoint x="907" y="185.63" as="sourcePoint" />
            <mxPoint x="942" y="254.63" as="targetPoint" />
            <Array as="points">
              <mxPoint x="965" y="186" />
            </Array>
          </mxGeometry>
        </mxCell>
        <mxCell id="HEd6Ybi1qfZsTUwNIPrC-85" value="" style="curved=1;endArrow=classic;html=1;rounded=0;exitX=0;exitY=0.5;exitDx=0;exitDy=0;entryX=0;entryY=0.5;entryDx=0;entryDy=0;" parent="1" edge="1">
          <mxGeometry width="50" height="50" relative="1" as="geometry">
            <mxPoint x="1027" y="338.74" as="sourcePoint" />
            <mxPoint x="1733.5" y="340.6300000000001" as="targetPoint" />
            <Array as="points">
              <mxPoint x="1031" y="396" />
              <mxPoint x="1164" y="430" />
              <mxPoint x="1375" y="440" />
              <mxPoint x="1569" y="429.74" />
              <mxPoint x="1735" y="413.74" />
            </Array>
          </mxGeometry>
        </mxCell>
        <mxCell id="HEd6Ybi1qfZsTUwNIPrC-89" value="" style="curved=1;endArrow=classic;html=1;rounded=0;fontSize=14;fontStyle=1;exitX=1;exitY=0.5;exitDx=0;exitDy=0;entryX=0.5;entryY=0;entryDx=0;entryDy=0;" parent="1" source="HEd6Ybi1qfZsTUwNIPrC-93" target="HEd6Ybi1qfZsTUwNIPrC-98" edge="1">
          <mxGeometry width="50" height="50" relative="1" as="geometry">
            <mxPoint x="1029" y="233" as="sourcePoint" />
            <mxPoint x="1066.4999999999998" y="189.26" as="targetPoint" />
            <Array as="points">
              <mxPoint x="1034" y="213" />
              <mxPoint x="1044" y="193" />
            </Array>
          </mxGeometry>
        </mxCell>
        <mxCell id="HEd6Ybi1qfZsTUwNIPrC-90" style="edgeStyle=orthogonalEdgeStyle;rounded=0;orthogonalLoop=1;jettySize=auto;html=1;exitX=0.5;exitY=1;exitDx=0;exitDy=0;entryX=0.5;entryY=0;entryDx=0;entryDy=0;" parent="1" target="HEd6Ybi1qfZsTUwNIPrC-99" edge="1">
          <mxGeometry relative="1" as="geometry">
            <mxPoint x="1119.6299999999999" y="189.25" as="targetPoint" />
            <mxPoint x="1100.2399999999998" y="189.26" as="sourcePoint" />
          </mxGeometry>
        </mxCell>
        <mxCell id="HEd6Ybi1qfZsTUwNIPrC-91" style="edgeStyle=orthogonalEdgeStyle;rounded=0;orthogonalLoop=1;jettySize=auto;html=1;exitX=0.5;exitY=1;exitDx=0;exitDy=0;entryX=0.5;entryY=0;entryDx=0;entryDy=0;" parent="1" target="HEd6Ybi1qfZsTUwNIPrC-106" edge="1">
          <mxGeometry relative="1" as="geometry">
            <mxPoint x="1263.3699999999997" y="189.8800000000001" as="sourcePoint" />
            <mxPoint x="1279.6299999999999" y="189.8800000000001" as="targetPoint" />
          </mxGeometry>
        </mxCell>
        <mxCell id="HEd6Ybi1qfZsTUwNIPrC-127" style="edgeStyle=orthogonalEdgeStyle;rounded=0;orthogonalLoop=1;jettySize=auto;html=1;exitX=0.5;exitY=1;exitDx=0;exitDy=0;entryX=0.5;entryY=0;entryDx=0;entryDy=0;" parent="1" source="HEd6Ybi1qfZsTUwNIPrC-92" target="WK32DhDvXuLAIViGbRyr-122" edge="1">
          <mxGeometry relative="1" as="geometry" />
        </mxCell>
        <mxCell id="HEd6Ybi1qfZsTUwNIPrC-92" value="&lt;b&gt;&lt;font style=&quot;font-size: 18px;&quot;&gt;Add&lt;/font&gt;&lt;/b&gt;" style="rounded=1;whiteSpace=wrap;html=1;fillColor=#76608a;fontColor=#ffffff;strokeColor=#432D57;rotation=-90;" parent="1" vertex="1">
          <mxGeometry x="1702" y="291.13" width="65" height="33.74" as="geometry" />
        </mxCell>
        <mxCell id="HEd6Ybi1qfZsTUwNIPrC-93" value="&lt;b&gt;&lt;font style=&quot;font-size: 18px;&quot;&gt;Relu&lt;/font&gt;&lt;/b&gt;" style="rounded=1;whiteSpace=wrap;html=1;fillColor=#a20025;fontColor=#ffffff;strokeColor=#6F0000;rotation=-90;" parent="1" vertex="1">
          <mxGeometry x="989" y="288.13" width="65" height="33.74" as="geometry" />
        </mxCell>
        <mxCell id="HEd6Ybi1qfZsTUwNIPrC-94" style="edgeStyle=orthogonalEdgeStyle;rounded=0;orthogonalLoop=1;jettySize=auto;html=1;exitX=0.5;exitY=1;exitDx=0;exitDy=0;entryX=0.5;entryY=0;entryDx=0;entryDy=0;" parent="1" target="HEd6Ybi1qfZsTUwNIPrC-97" edge="1">
          <mxGeometry relative="1" as="geometry">
            <mxPoint x="1153.3699999999997" y="189.25" as="sourcePoint" />
          </mxGeometry>
        </mxCell>
        <mxCell id="HEd6Ybi1qfZsTUwNIPrC-96" style="edgeStyle=orthogonalEdgeStyle;rounded=0;orthogonalLoop=1;jettySize=auto;html=1;exitX=0.5;exitY=1;exitDx=0;exitDy=0;entryX=0.5;entryY=0;entryDx=0;entryDy=0;" parent="1" source="HEd6Ybi1qfZsTUwNIPrC-97" target="HEd6Ybi1qfZsTUwNIPrC-104" edge="1">
          <mxGeometry relative="1" as="geometry">
            <mxPoint x="1229.6299999999999" y="189.8800000000001" as="targetPoint" />
          </mxGeometry>
        </mxCell>
        <mxCell id="HEd6Ybi1qfZsTUwNIPrC-97" value="&lt;b&gt;&lt;font style=&quot;font-size: 18px;&quot;&gt;Conv&lt;/font&gt;&lt;/b&gt;" style="rounded=1;whiteSpace=wrap;html=1;fillColor=#0038A8;fontColor=#ffffff;strokeColor=#001DBC;rotation=-90;" parent="1" vertex="1">
          <mxGeometry x="1178" y="172.38" width="65" height="33.74" as="geometry" />
        </mxCell>
        <mxCell id="HEd6Ybi1qfZsTUwNIPrC-98" value="&lt;b&gt;&lt;font style=&quot;font-size: 18px;&quot;&gt;QuantizeLinear&lt;/font&gt;&lt;/b&gt;" style="rounded=1;whiteSpace=wrap;html=1;fillColor=#647687;fontColor=#ffffff;strokeColor=#314354;rotation=-90;" parent="1" vertex="1">
          <mxGeometry x="1011" y="175.51" width="161" height="33.74" as="geometry" />
        </mxCell>
        <mxCell id="HEd6Ybi1qfZsTUwNIPrC-99" value="&lt;b&gt;&lt;font style=&quot;font-size: 18px;&quot;&gt;DeQuantizeLinear&lt;/font&gt;&lt;/b&gt;" style="rounded=1;whiteSpace=wrap;html=1;rotation=-90;fillColor=#d80073;strokeColor=#A50040;fontColor=#ffffff;" parent="1" vertex="1">
          <mxGeometry x="1059.3" y="172.38" width="179.7" height="33.74" as="geometry" />
        </mxCell>
        <mxCell id="HEd6Ybi1qfZsTUwNIPrC-100" value="&lt;b&gt;&lt;font style=&quot;font-size: 18px;&quot;&gt;DeQuantizeLinear&lt;/font&gt;&lt;/b&gt;" style="rounded=1;whiteSpace=wrap;html=1;rotation=0;fillColor=#d80073;strokeColor=#A50040;fontColor=#ffffff;" parent="1" vertex="1">
          <mxGeometry x="1006" y="11.260000000000003" width="179.7" height="33.74" as="geometry" />
        </mxCell>
        <mxCell id="HEd6Ybi1qfZsTUwNIPrC-101" value="&lt;b&gt;&lt;font style=&quot;font-size: 18px;&quot;&gt;DeQuantizeLinear&lt;/font&gt;&lt;/b&gt;" style="rounded=1;whiteSpace=wrap;html=1;rotation=0;fillColor=#d80073;strokeColor=#A50040;fontColor=#ffffff;" parent="1" vertex="1">
          <mxGeometry x="1004" y="54.000000000000014" width="179.7" height="33.74" as="geometry" />
        </mxCell>
        <mxCell id="HEd6Ybi1qfZsTUwNIPrC-102" value="" style="curved=1;endArrow=classic;html=1;rounded=0;exitX=1;exitY=0.5;exitDx=0;exitDy=0;entryX=1;entryY=0.5;entryDx=0;entryDy=0;" parent="1" source="HEd6Ybi1qfZsTUwNIPrC-100" target="HEd6Ybi1qfZsTUwNIPrC-97" edge="1">
          <mxGeometry width="50" height="50" relative="1" as="geometry">
            <mxPoint x="1408" y="151" as="sourcePoint" />
            <mxPoint x="1458" y="101.00000000000001" as="targetPoint" />
            <Array as="points">
              <mxPoint x="1205" y="28" />
              <mxPoint x="1211" y="97.00000000000001" />
            </Array>
          </mxGeometry>
        </mxCell>
        <mxCell id="HEd6Ybi1qfZsTUwNIPrC-103" value="" style="curved=1;endArrow=classic;html=1;rounded=0;exitX=1;exitY=0.5;exitDx=0;exitDy=0;entryX=1;entryY=0.5;entryDx=0;entryDy=0;" parent="1" source="HEd6Ybi1qfZsTUwNIPrC-101" target="HEd6Ybi1qfZsTUwNIPrC-97" edge="1">
          <mxGeometry width="50" height="50" relative="1" as="geometry">
            <mxPoint x="1408" y="151" as="sourcePoint" />
            <mxPoint x="1458" y="101.00000000000001" as="targetPoint" />
            <Array as="points">
              <mxPoint x="1183" y="65.00000000000001" />
              <mxPoint x="1195" y="76" />
              <mxPoint x="1204" y="113.00000000000001" />
            </Array>
          </mxGeometry>
        </mxCell>
        <mxCell id="HEd6Ybi1qfZsTUwNIPrC-104" value="&lt;b&gt;&lt;font style=&quot;font-size: 18px;&quot;&gt;QuantizeLinear&lt;/font&gt;&lt;/b&gt;" style="rounded=1;whiteSpace=wrap;html=1;fillColor=#647687;fontColor=#ffffff;strokeColor=#314354;rotation=-90;" parent="1" vertex="1">
          <mxGeometry x="1190" y="172.38" width="161" height="33.74" as="geometry" />
        </mxCell>
        <mxCell id="HEd6Ybi1qfZsTUwNIPrC-105" style="edgeStyle=orthogonalEdgeStyle;rounded=0;orthogonalLoop=1;jettySize=auto;html=1;exitX=0.5;exitY=1;exitDx=0;exitDy=0;entryX=0.5;entryY=0;entryDx=0;entryDy=0;" parent="1" source="HEd6Ybi1qfZsTUwNIPrC-106" target="HEd6Ybi1qfZsTUwNIPrC-108" edge="1">
          <mxGeometry relative="1" as="geometry" />
        </mxCell>
        <mxCell id="HEd6Ybi1qfZsTUwNIPrC-106" value="&lt;b&gt;&lt;font style=&quot;font-size: 18px;&quot;&gt;DeQuantizeLinear&lt;/font&gt;&lt;/b&gt;" style="rounded=1;whiteSpace=wrap;html=1;rotation=-90;fillColor=#d80073;strokeColor=#A50040;fontColor=#ffffff;" parent="1" vertex="1">
          <mxGeometry x="1243" y="173.01" width="179.7" height="33.74" as="geometry" />
        </mxCell>
        <mxCell id="HEd6Ybi1qfZsTUwNIPrC-107" style="edgeStyle=orthogonalEdgeStyle;rounded=0;orthogonalLoop=1;jettySize=auto;html=1;exitX=0.5;exitY=1;exitDx=0;exitDy=0;entryX=0.5;entryY=0;entryDx=0;entryDy=0;" parent="1" source="HEd6Ybi1qfZsTUwNIPrC-108" target="HEd6Ybi1qfZsTUwNIPrC-114" edge="1">
          <mxGeometry relative="1" as="geometry" />
        </mxCell>
        <mxCell id="HEd6Ybi1qfZsTUwNIPrC-108" value="&lt;b&gt;&lt;font style=&quot;font-size: 18px;&quot;&gt;Conv&lt;/font&gt;&lt;/b&gt;" style="rounded=1;whiteSpace=wrap;html=1;fillColor=#0038A8;fontColor=#ffffff;strokeColor=#001DBC;rotation=-90;" parent="1" vertex="1">
          <mxGeometry x="1357" y="173.01" width="65" height="33.74" as="geometry" />
        </mxCell>
        <mxCell id="HEd6Ybi1qfZsTUwNIPrC-109" value="&lt;b&gt;&lt;font style=&quot;font-size: 18px;&quot;&gt;DeQuantizeLinear&lt;/font&gt;&lt;/b&gt;" style="rounded=1;whiteSpace=wrap;html=1;rotation=0;fillColor=#d80073;strokeColor=#A50040;fontColor=#ffffff;" parent="1" vertex="1">
          <mxGeometry x="1124" y="-86.99999999999999" width="179.7" height="33.74" as="geometry" />
        </mxCell>
        <mxCell id="HEd6Ybi1qfZsTUwNIPrC-110" value="&lt;b&gt;&lt;font style=&quot;font-size: 18px;&quot;&gt;DeQuantizeLinear&lt;/font&gt;&lt;/b&gt;" style="rounded=1;whiteSpace=wrap;html=1;rotation=0;fillColor=#d80073;strokeColor=#A50040;fontColor=#ffffff;" parent="1" vertex="1">
          <mxGeometry x="1124" y="-44" width="179.7" height="33.74" as="geometry" />
        </mxCell>
        <mxCell id="HEd6Ybi1qfZsTUwNIPrC-111" value="" style="curved=1;endArrow=classic;html=1;rounded=0;exitX=1;exitY=0.5;exitDx=0;exitDy=0;entryX=1;entryY=0.5;entryDx=0;entryDy=0;" parent="1" source="HEd6Ybi1qfZsTUwNIPrC-109" target="HEd6Ybi1qfZsTUwNIPrC-108" edge="1">
          <mxGeometry width="50" height="50" relative="1" as="geometry">
            <mxPoint x="1588" y="151" as="sourcePoint" />
            <mxPoint x="1372" y="157" as="targetPoint" />
            <Array as="points">
              <mxPoint x="1305" y="-76" />
              <mxPoint x="1341" y="-28" />
            </Array>
          </mxGeometry>
        </mxCell>
        <mxCell id="HEd6Ybi1qfZsTUwNIPrC-112" value="" style="curved=1;endArrow=classic;html=1;rounded=0;exitX=1;exitY=0.5;exitDx=0;exitDy=0;entryX=1;entryY=0.5;entryDx=0;entryDy=0;" parent="1" source="HEd6Ybi1qfZsTUwNIPrC-110" target="HEd6Ybi1qfZsTUwNIPrC-108" edge="1">
          <mxGeometry width="50" height="50" relative="1" as="geometry">
            <mxPoint x="1588" y="151" as="sourcePoint" />
            <mxPoint x="1372" y="157" as="targetPoint" />
            <Array as="points">
              <mxPoint x="1310" y="-32" />
              <mxPoint x="1340" y="29" />
            </Array>
          </mxGeometry>
        </mxCell>
        <mxCell id="HEd6Ybi1qfZsTUwNIPrC-113" style="edgeStyle=orthogonalEdgeStyle;rounded=0;orthogonalLoop=1;jettySize=auto;html=1;exitX=0.5;exitY=1;exitDx=0;exitDy=0;entryX=0.5;entryY=0;entryDx=0;entryDy=0;" parent="1" source="HEd6Ybi1qfZsTUwNIPrC-114" target="HEd6Ybi1qfZsTUwNIPrC-115" edge="1">
          <mxGeometry relative="1" as="geometry" />
        </mxCell>
        <mxCell id="HEd6Ybi1qfZsTUwNIPrC-114" value="&lt;b&gt;&lt;font style=&quot;font-size: 18px;&quot;&gt;QuantizeLinear&lt;/font&gt;&lt;/b&gt;" style="rounded=1;whiteSpace=wrap;html=1;fillColor=#647687;fontColor=#ffffff;strokeColor=#314354;rotation=-90;" parent="1" vertex="1">
          <mxGeometry x="1371" y="172.38" width="161" height="33.74" as="geometry" />
        </mxCell>
        <mxCell id="HEd6Ybi1qfZsTUwNIPrC-115" value="&lt;b&gt;&lt;font style=&quot;font-size: 18px;&quot;&gt;DeQuantizeLinear&lt;/font&gt;&lt;/b&gt;" style="rounded=1;whiteSpace=wrap;html=1;rotation=-90;fillColor=#d80073;strokeColor=#A50040;fontColor=#ffffff;" parent="1" vertex="1">
          <mxGeometry x="1416" y="172.38" width="179.7" height="33.74" as="geometry" />
        </mxCell>
        <mxCell id="HEd6Ybi1qfZsTUwNIPrC-116" value="" style="endArrow=classic;html=1;rounded=0;exitX=0.5;exitY=1;exitDx=0;exitDy=0;entryX=0.5;entryY=0;entryDx=0;entryDy=0;" parent="1" source="HEd6Ybi1qfZsTUwNIPrC-115" target="HEd6Ybi1qfZsTUwNIPrC-118" edge="1">
          <mxGeometry width="50" height="50" relative="1" as="geometry">
            <mxPoint x="1408" y="163" as="sourcePoint" />
            <mxPoint x="1518" y="189" as="targetPoint" />
          </mxGeometry>
        </mxCell>
        <mxCell id="HEd6Ybi1qfZsTUwNIPrC-117" style="edgeStyle=orthogonalEdgeStyle;rounded=0;orthogonalLoop=1;jettySize=auto;html=1;exitX=0.5;exitY=1;exitDx=0;exitDy=0;entryX=0.5;entryY=0;entryDx=0;entryDy=0;" parent="1" source="HEd6Ybi1qfZsTUwNIPrC-118" target="HEd6Ybi1qfZsTUwNIPrC-124" edge="1">
          <mxGeometry relative="1" as="geometry" />
        </mxCell>
        <mxCell id="HEd6Ybi1qfZsTUwNIPrC-118" value="&lt;b&gt;&lt;font style=&quot;font-size: 18px;&quot;&gt;Conv&lt;/font&gt;&lt;/b&gt;" style="rounded=1;whiteSpace=wrap;html=1;fillColor=#0038A8;fontColor=#ffffff;strokeColor=#001DBC;rotation=-90;" parent="1" vertex="1">
          <mxGeometry x="1532" y="172.38" width="65" height="33.74" as="geometry" />
        </mxCell>
        <mxCell id="HEd6Ybi1qfZsTUwNIPrC-119" value="&lt;b&gt;&lt;font style=&quot;font-size: 18px;&quot;&gt;DeQuantizeLinear&lt;/font&gt;&lt;/b&gt;" style="rounded=1;whiteSpace=wrap;html=1;rotation=0;fillColor=#d80073;strokeColor=#A50040;fontColor=#ffffff;" parent="1" vertex="1">
          <mxGeometry x="1333" y="-145" width="179.7" height="33.74" as="geometry" />
        </mxCell>
        <mxCell id="HEd6Ybi1qfZsTUwNIPrC-120" value="&lt;b&gt;&lt;font style=&quot;font-size: 18px;&quot;&gt;DeQuantizeLinear&lt;/font&gt;&lt;/b&gt;" style="rounded=1;whiteSpace=wrap;html=1;rotation=0;fillColor=#d80073;strokeColor=#A50040;fontColor=#ffffff;" parent="1" vertex="1">
          <mxGeometry x="1331.7" y="-101.99999999999999" width="179.7" height="33.74" as="geometry" />
        </mxCell>
        <mxCell id="HEd6Ybi1qfZsTUwNIPrC-121" value="" style="curved=1;endArrow=classic;html=1;rounded=0;exitX=1;exitY=0.5;exitDx=0;exitDy=0;entryX=1;entryY=0.5;entryDx=0;entryDy=0;" parent="1" source="HEd6Ybi1qfZsTUwNIPrC-119" target="HEd6Ybi1qfZsTUwNIPrC-118" edge="1">
          <mxGeometry width="50" height="50" relative="1" as="geometry">
            <mxPoint x="1786" y="151" as="sourcePoint" />
            <mxPoint x="1554" y="157" as="targetPoint" />
            <Array as="points">
              <mxPoint x="1540" y="-128" />
              <mxPoint x="1559" y="20" />
            </Array>
          </mxGeometry>
        </mxCell>
        <mxCell id="HEd6Ybi1qfZsTUwNIPrC-122" value="" style="curved=1;endArrow=classic;html=1;rounded=0;exitX=1;exitY=0.5;exitDx=0;exitDy=0;entryX=1;entryY=0.5;entryDx=0;entryDy=0;" parent="1" source="HEd6Ybi1qfZsTUwNIPrC-120" target="HEd6Ybi1qfZsTUwNIPrC-118" edge="1">
          <mxGeometry width="50" height="50" relative="1" as="geometry">
            <mxPoint x="1786" y="151" as="sourcePoint" />
            <mxPoint x="1554" y="157" as="targetPoint" />
            <Array as="points">
              <mxPoint x="1533" y="-88.99999999999999" />
            </Array>
          </mxGeometry>
        </mxCell>
        <mxCell id="HEd6Ybi1qfZsTUwNIPrC-123" style="edgeStyle=orthogonalEdgeStyle;rounded=0;orthogonalLoop=1;jettySize=auto;html=1;exitX=0.5;exitY=1;exitDx=0;exitDy=0;entryX=0.5;entryY=0;entryDx=0;entryDy=0;" parent="1" source="HEd6Ybi1qfZsTUwNIPrC-124" target="HEd6Ybi1qfZsTUwNIPrC-125" edge="1">
          <mxGeometry relative="1" as="geometry" />
        </mxCell>
        <mxCell id="HEd6Ybi1qfZsTUwNIPrC-124" value="&lt;b&gt;&lt;font style=&quot;font-size: 18px;&quot;&gt;QuantizeLinear&lt;/font&gt;&lt;/b&gt;" style="rounded=1;whiteSpace=wrap;html=1;fillColor=#647687;fontColor=#ffffff;strokeColor=#314354;rotation=-90;" parent="1" vertex="1">
          <mxGeometry x="1538" y="172.38" width="161" height="33.74" as="geometry" />
        </mxCell>
        <mxCell id="HEd6Ybi1qfZsTUwNIPrC-125" value="&lt;b&gt;&lt;font style=&quot;font-size: 18px;&quot;&gt;DeQuantizeLinear&lt;/font&gt;&lt;/b&gt;" style="rounded=1;whiteSpace=wrap;html=1;rotation=-90;fillColor=#d80073;strokeColor=#A50040;fontColor=#ffffff;" parent="1" vertex="1">
          <mxGeometry x="1589" y="172.38" width="179.7" height="33.74" as="geometry" />
        </mxCell>
        <mxCell id="HEd6Ybi1qfZsTUwNIPrC-126" value="" style="curved=1;endArrow=classic;html=1;rounded=0;exitX=0.5;exitY=1;exitDx=0;exitDy=0;fontSize=14;fontStyle=1;entryX=1;entryY=0.5;entryDx=0;entryDy=0;" parent="1" source="HEd6Ybi1qfZsTUwNIPrC-125" target="HEd6Ybi1qfZsTUwNIPrC-92" edge="1">
          <mxGeometry width="50" height="50" relative="1" as="geometry">
            <mxPoint x="1681" y="188.63" as="sourcePoint" />
            <mxPoint x="1716" y="257.63" as="targetPoint" />
            <Array as="points">
              <mxPoint x="1739" y="189" />
            </Array>
          </mxGeometry>
        </mxCell>
        <mxCell id="HEd6Ybi1qfZsTUwNIPrC-131" style="edgeStyle=orthogonalEdgeStyle;rounded=0;orthogonalLoop=1;jettySize=auto;html=1;exitX=0.5;exitY=1;exitDx=0;exitDy=0;entryX=0.5;entryY=0;entryDx=0;entryDy=0;" parent="1" source="HEd6Ybi1qfZsTUwNIPrC-128" target="HEd6Ybi1qfZsTUwNIPrC-130" edge="1">
          <mxGeometry relative="1" as="geometry" />
        </mxCell>
        <mxCell id="HEd6Ybi1qfZsTUwNIPrC-128" value="&lt;b&gt;&lt;font style=&quot;font-size: 18px;&quot;&gt;QuantizeLinear&lt;/font&gt;&lt;/b&gt;" style="rounded=1;whiteSpace=wrap;html=1;fillColor=#647687;fontColor=#ffffff;strokeColor=#314354;rotation=-90;" parent="1" vertex="1">
          <mxGeometry x="1779" y="292.11" width="161" height="33.74" as="geometry" />
        </mxCell>
        <mxCell id="HEd6Ybi1qfZsTUwNIPrC-130" value="&lt;b&gt;&lt;font style=&quot;font-size: 18px;&quot;&gt;DeQuantizeLinear&lt;/font&gt;&lt;/b&gt;" style="rounded=1;whiteSpace=wrap;html=1;rotation=-90;fillColor=#d80073;strokeColor=#A50040;fontColor=#ffffff;" parent="1" vertex="1">
          <mxGeometry x="1833" y="292.11" width="179.7" height="33.74" as="geometry" />
        </mxCell>
        <mxCell id="HEd6Ybi1qfZsTUwNIPrC-132" value="&lt;b&gt;&lt;font style=&quot;font-size: 18px;&quot;&gt;DeQuantizeLinear&lt;/font&gt;&lt;/b&gt;" style="rounded=1;whiteSpace=wrap;html=1;rotation=0;fillColor=#d80073;strokeColor=#A50040;fontColor=#ffffff;" parent="1" vertex="1">
          <mxGeometry x="1779" y="135.63" width="179.7" height="33.74" as="geometry" />
        </mxCell>
        <mxCell id="HEd6Ybi1qfZsTUwNIPrC-133" value="&lt;b&gt;&lt;font style=&quot;font-size: 18px;&quot;&gt;DeQuantizeLinear&lt;/font&gt;&lt;/b&gt;" style="rounded=1;whiteSpace=wrap;html=1;rotation=0;fillColor=#d80073;strokeColor=#A50040;fontColor=#ffffff;" parent="1" vertex="1">
          <mxGeometry x="1779" y="175.51" width="179.7" height="33.74" as="geometry" />
        </mxCell>
        <mxCell id="HEd6Ybi1qfZsTUwNIPrC-134" value="" style="curved=1;endArrow=classic;html=1;rounded=0;exitX=1;exitY=0.5;exitDx=0;exitDy=0;entryX=1;entryY=0.5;entryDx=0;entryDy=0;" parent="1" source="HEd6Ybi1qfZsTUwNIPrC-132" target="HEd6Ybi1qfZsTUwNIPrC-2" edge="1">
          <mxGeometry width="50" height="50" relative="1" as="geometry">
            <mxPoint x="2159" y="269.74" as="sourcePoint" />
            <mxPoint x="1962" y="275.74" as="targetPoint" />
            <Array as="points">
              <mxPoint x="1984" y="183" />
            </Array>
          </mxGeometry>
        </mxCell>
        <mxCell id="HEd6Ybi1qfZsTUwNIPrC-135" value="" style="curved=1;endArrow=classic;html=1;rounded=0;exitX=1;exitY=0.5;exitDx=0;exitDy=0;entryX=1;entryY=0.5;entryDx=0;entryDy=0;" parent="1" source="HEd6Ybi1qfZsTUwNIPrC-133" target="HEd6Ybi1qfZsTUwNIPrC-2" edge="1">
          <mxGeometry width="50" height="50" relative="1" as="geometry">
            <mxPoint x="2159" y="269.74" as="sourcePoint" />
            <mxPoint x="1962" y="275.74" as="targetPoint" />
            <Array as="points">
              <mxPoint x="1975" y="194" />
            </Array>
          </mxGeometry>
        </mxCell>
        <mxCell id="HEd6Ybi1qfZsTUwNIPrC-136" style="edgeStyle=orthogonalEdgeStyle;rounded=0;orthogonalLoop=1;jettySize=auto;html=1;exitX=0.5;exitY=1;exitDx=0;exitDy=0;entryX=0.5;entryY=0;entryDx=0;entryDy=0;" parent="1" source="HEd6Ybi1qfZsTUwNIPrC-137" target="HEd6Ybi1qfZsTUwNIPrC-138" edge="1">
          <mxGeometry relative="1" as="geometry" />
        </mxCell>
        <mxCell id="HEd6Ybi1qfZsTUwNIPrC-137" value="&lt;b&gt;&lt;font style=&quot;font-size: 18px;&quot;&gt;QuantizeLinear&lt;/font&gt;&lt;/b&gt;" style="rounded=1;whiteSpace=wrap;html=1;fillColor=#647687;fontColor=#ffffff;strokeColor=#314354;rotation=-90;" parent="1" vertex="1">
          <mxGeometry x="1949" y="292.11" width="161" height="33.74" as="geometry" />
        </mxCell>
        <mxCell id="HEd6Ybi1qfZsTUwNIPrC-141" style="edgeStyle=orthogonalEdgeStyle;rounded=0;orthogonalLoop=1;jettySize=auto;html=1;exitX=0.5;exitY=1;exitDx=0;exitDy=0;entryX=0.5;entryY=0;entryDx=0;entryDy=0;" parent="1" source="HEd6Ybi1qfZsTUwNIPrC-138" target="HEd6Ybi1qfZsTUwNIPrC-140" edge="1">
          <mxGeometry relative="1" as="geometry" />
        </mxCell>
        <mxCell id="HEd6Ybi1qfZsTUwNIPrC-138" value="&lt;b&gt;&lt;font style=&quot;font-size: 18px;&quot;&gt;DeQuantizeLinear&lt;/font&gt;&lt;/b&gt;" style="rounded=1;whiteSpace=wrap;html=1;rotation=-90;fillColor=#d80073;strokeColor=#A50040;fontColor=#ffffff;" parent="1" vertex="1">
          <mxGeometry x="1998.3" y="292.11" width="179.7" height="33.74" as="geometry" />
        </mxCell>
        <mxCell id="HEd6Ybi1qfZsTUwNIPrC-146" style="edgeStyle=orthogonalEdgeStyle;rounded=0;orthogonalLoop=1;jettySize=auto;html=1;exitX=0.5;exitY=1;exitDx=0;exitDy=0;entryX=0.5;entryY=0;entryDx=0;entryDy=0;" parent="1" source="HEd6Ybi1qfZsTUwNIPrC-140" target="WK32DhDvXuLAIViGbRyr-170" edge="1">
          <mxGeometry relative="1" as="geometry" />
        </mxCell>
        <mxCell id="HEd6Ybi1qfZsTUwNIPrC-140" value="&lt;b&gt;&lt;font style=&quot;font-size: 18px;&quot;&gt;Conv&lt;/font&gt;&lt;/b&gt;" style="rounded=1;whiteSpace=wrap;html=1;fillColor=#0038A8;fontColor=#ffffff;strokeColor=#001DBC;rotation=-90;" parent="1" vertex="1">
          <mxGeometry x="2113" y="292.11" width="65" height="33.74" as="geometry" />
        </mxCell>
        <mxCell id="HEd6Ybi1qfZsTUwNIPrC-142" value="&lt;b&gt;&lt;font style=&quot;font-size: 18px;&quot;&gt;DeQuantizeLinear&lt;/font&gt;&lt;/b&gt;" style="rounded=1;whiteSpace=wrap;html=1;rotation=0;fillColor=#d80073;strokeColor=#A50040;fontColor=#ffffff;" parent="1" vertex="1">
          <mxGeometry x="1904" y="31.999999999999993" width="179.7" height="33.74" as="geometry" />
        </mxCell>
        <mxCell id="HEd6Ybi1qfZsTUwNIPrC-143" value="&lt;b&gt;&lt;font style=&quot;font-size: 18px;&quot;&gt;DeQuantizeLinear&lt;/font&gt;&lt;/b&gt;" style="rounded=1;whiteSpace=wrap;html=1;rotation=0;fillColor=#d80073;strokeColor=#A50040;fontColor=#ffffff;" parent="1" vertex="1">
          <mxGeometry x="1904" y="74.74000000000001" width="179.7" height="33.74" as="geometry" />
        </mxCell>
        <mxCell id="HEd6Ybi1qfZsTUwNIPrC-144" value="" style="curved=1;endArrow=classic;html=1;rounded=0;exitX=1;exitY=0.5;exitDx=0;exitDy=0;entryX=1;entryY=0.5;entryDx=0;entryDy=0;" parent="1" source="HEd6Ybi1qfZsTUwNIPrC-142" target="HEd6Ybi1qfZsTUwNIPrC-140" edge="1">
          <mxGeometry width="50" height="50" relative="1" as="geometry">
            <mxPoint x="2323" y="176.48000000000002" as="sourcePoint" />
            <mxPoint x="2125" y="182.74" as="targetPoint" />
            <Array as="points">
              <mxPoint x="2120" y="59" />
              <mxPoint x="2143" y="126" />
            </Array>
          </mxGeometry>
        </mxCell>
        <mxCell id="HEd6Ybi1qfZsTUwNIPrC-145" value="" style="curved=1;endArrow=classic;html=1;rounded=0;exitX=1;exitY=0.5;exitDx=0;exitDy=0;entryX=1;entryY=0.5;entryDx=0;entryDy=0;" parent="1" source="HEd6Ybi1qfZsTUwNIPrC-143" target="HEd6Ybi1qfZsTUwNIPrC-140" edge="1">
          <mxGeometry width="50" height="50" relative="1" as="geometry">
            <mxPoint x="2323" y="176.48000000000002" as="sourcePoint" />
            <mxPoint x="2125" y="182.74" as="targetPoint" />
            <Array as="points">
              <mxPoint x="2100" y="97" />
              <mxPoint x="2119" y="138.48000000000002" />
            </Array>
          </mxGeometry>
        </mxCell>
        <mxCell id="HEd6Ybi1qfZsTUwNIPrC-148" style="edgeStyle=orthogonalEdgeStyle;rounded=0;orthogonalLoop=1;jettySize=auto;html=1;exitX=0.5;exitY=1;exitDx=0;exitDy=0;entryX=0.5;entryY=0;entryDx=0;entryDy=0;" parent="1" source="HEd6Ybi1qfZsTUwNIPrC-149" target="HEd6Ybi1qfZsTUwNIPrC-150" edge="1">
          <mxGeometry relative="1" as="geometry" />
        </mxCell>
        <mxCell id="HEd6Ybi1qfZsTUwNIPrC-149" value="&lt;b&gt;&lt;font style=&quot;font-size: 18px;&quot;&gt;QuantizeLinear&lt;/font&gt;&lt;/b&gt;" style="rounded=1;whiteSpace=wrap;html=1;fillColor=#647687;fontColor=#ffffff;strokeColor=#314354;rotation=-90;" parent="1" vertex="1">
          <mxGeometry x="2439" y="292.10999999999996" width="161" height="33.74" as="geometry" />
        </mxCell>
        <mxCell id="HEd6Ybi1qfZsTUwNIPrC-152" style="edgeStyle=orthogonalEdgeStyle;rounded=0;orthogonalLoop=1;jettySize=auto;html=1;exitX=0.5;exitY=1;exitDx=0;exitDy=0;entryX=0.5;entryY=0;entryDx=0;entryDy=0;" parent="1" source="HEd6Ybi1qfZsTUwNIPrC-150" target="Iu25lgEWChFgaFbriD92-103" edge="1">
          <mxGeometry relative="1" as="geometry" />
        </mxCell>
        <mxCell id="HEd6Ybi1qfZsTUwNIPrC-150" value="&lt;b&gt;&lt;font style=&quot;font-size: 18px;&quot;&gt;DeQuantizeLinear&lt;/font&gt;&lt;/b&gt;" style="rounded=1;whiteSpace=wrap;html=1;rotation=-90;fillColor=#d80073;strokeColor=#A50040;fontColor=#ffffff;" parent="1" vertex="1">
          <mxGeometry x="2489" y="295.23999999999995" width="179.7" height="33.74" as="geometry" />
        </mxCell>
        <mxCell id="HEd6Ybi1qfZsTUwNIPrC-156" value="&lt;font style=&quot;font-size: 18px;&quot;&gt;Input&lt;/font&gt;" style="rounded=1;whiteSpace=wrap;html=1;fillColor=#f5f5f5;gradientColor=#b3b3b3;strokeColor=#666666;fontSize=14;fontStyle=1;rotation=-90;" parent="1" vertex="1">
          <mxGeometry x="-162" y="288.13" width="421.5" height="35" as="geometry" />
        </mxCell>
        <mxCell id="HEd6Ybi1qfZsTUwNIPrC-159" value="" style="endArrow=classic;html=1;rounded=0;entryX=0.501;entryY=1.034;entryDx=0;entryDy=0;entryPerimeter=0;exitX=0.383;exitY=0.086;exitDx=0;exitDy=0;exitPerimeter=0;" parent="1" source="HEd6Ybi1qfZsTUwNIPrC-161" target="Iu25lgEWChFgaFbriD92-146" edge="1">
          <mxGeometry width="50" height="50" relative="1" as="geometry">
            <mxPoint x="51" y="515" as="sourcePoint" />
            <mxPoint x="555" y="265" as="targetPoint" />
          </mxGeometry>
        </mxCell>
        <mxCell id="HEd6Ybi1qfZsTUwNIPrC-161" value="&lt;font style=&quot;font-size: 18px;&quot;&gt;Intermediate Layers&lt;/font&gt;" style="text;html=1;align=center;verticalAlign=middle;resizable=0;points=[];autosize=1;strokeColor=none;fillColor=none;fontSize=14;fontStyle=1;rotation=0;" parent="1" vertex="1">
          <mxGeometry x="15" y="519" width="188" height="34" as="geometry" />
        </mxCell>
        <mxCell id="9veTMazjlnEIiwQIYsHu-1" value="&lt;font style=&quot;font-size: 18px;&quot;&gt;Early Exit Point: 967&lt;/font&gt;" style="text;html=1;align=center;verticalAlign=middle;resizable=0;points=[];autosize=1;strokeColor=none;fillColor=none;fontSize=14;fontStyle=1;rotation=0;" parent="1" vertex="1">
          <mxGeometry x="185" y="471" width="191" height="34" as="geometry" />
        </mxCell>
        <mxCell id="9veTMazjlnEIiwQIYsHu-2" value="" style="endArrow=classic;html=1;rounded=0;exitX=0.121;exitY=0.016;exitDx=0;exitDy=0;exitPerimeter=0;" parent="1" source="9veTMazjlnEIiwQIYsHu-1" edge="1">
          <mxGeometry width="50" height="50" relative="1" as="geometry">
            <mxPoint x="208" y="478" as="sourcePoint" />
            <mxPoint x="208" y="343" as="targetPoint" />
          </mxGeometry>
        </mxCell>
      </root>
    </mxGraphModel>
  </diagram>
</mxfile>
